<svg xmlns="http://www.w3.org/2000/svg" xmlns:xlink="http://www.w3.org/1999/xlink" width="16" height="16" viewBox="0 0 16 16">
  <defs>
    <clipPath id="clip-holidays-icon-mask">
      <rect width="16" height="16"/>
    </clipPath>
  </defs>
  <g id="holidays-icon-mask" clip-path="url(#clip-holidays-icon-mask)">
    <path d="M2807.714-845a1.618,1.618,0,0,1-1.714-1.5v-11a1.618,1.618,0,0,1,1.714-1.5h1.714v-1.625a.406.406,0,0,1,.429-.375h1.428a.406.406,0,0,1,.428.375V-859h4.571v-1.625a.406.406,0,0,1,.429-.375h1.429a.406.406,0,0,1,.428.375V-859h1.714a1.618,1.618,0,0,1,1.714,1.5v11a1.618,1.618,0,0,1-1.714,1.5Zm0-1.687a.2.2,0,0,0,.214.187h12.143a.2.2,0,0,0,.215-.187V-856h-12.572Zm2.408-4.545a3.839,3.839,0,0,1,3.84-3.84,3.84,3.84,0,0,1,3.84,3.84,3.839,3.839,0,0,1-3.84,3.84A3.839,3.839,0,0,1,2810.122-851.233Zm3.84,3.1c.288,0,.752-.638.98-1.734h-1.959C2813.21-848.774,2813.674-848.136,2813.962-848.136Zm1.253-.268a3.1,3.1,0,0,0,1.524-1.466H2815.7A5.2,5.2,0,0,1,2815.215-848.4Zm-2.505,0a5.162,5.162,0,0,1-.483-1.466h-1.041A3.1,3.1,0,0,0,2812.709-848.4Zm3.111-2.829c0,.212-.011.416-.026.619h1.2a3.153,3.153,0,0,0,.062-.619,3.152,3.152,0,0,0-.062-.619h-1.2C2815.809-851.649,2815.82-851.445,2815.82-851.233Zm-2.973,0c0,.217.012.421.03.619h2.171c.017-.2.031-.4.031-.619s-.012-.421-.029-.619h-2.172C2812.86-851.654,2812.847-851.449,2812.847-851.233Zm-1.982,0a3.134,3.134,0,0,0,.062.619h1.2c-.016-.2-.026-.407-.026-.619s.011-.416.026-.619h-1.2A3.134,3.134,0,0,0,2810.865-851.233Zm4.832-1.363h1.041a3.1,3.1,0,0,0-1.524-1.466A5.154,5.154,0,0,1,2815.7-852.6Zm-2.714,0h1.957c-.226-1.1-.691-1.734-.979-1.734S2813.21-853.692,2812.984-852.6Zm-1.8,0h1.041a5.162,5.162,0,0,1,.483-1.466A3.1,3.1,0,0,0,2811.186-852.6Z" transform="translate(-2806 861)" fill="currentColor"/>
  </g>
</svg>
