<svg xmlns="http://www.w3.org/2000/svg" xmlns:xlink="http://www.w3.org/1999/xlink" width="128" height="128" viewBox="0 0 128 128">
  <defs>
    <clipPath id="clip-holidays">
      <rect width="128" height="128"/>
    </clipPath>
  </defs>
  <g id="holidays" clip-path="url(#clip-holidays)">
    <rect width="128" height="128" fill="#fff"/>
    <circle id="Ellipse_1" data-name="Ellipse 1" cx="64" cy="64" r="64" fill="#990080"/>
    <circle id="Ellipse_4" data-name="Ellipse 4" cx="64" cy="64" r="64" fill="#990080"/>
    <path id="Pfad_23" data-name="Pfad 23" d="M33.617-32.394A17.208,17.208,0,0,0,16.382-15.159,17.208,17.208,0,0,0,33.617,2.076,17.208,17.208,0,0,0,50.852-15.159,17.208,17.208,0,0,0,33.617-32.394Zm0,28.44a11.225,11.225,0,0,1-11.2-11.2,11.216,11.216,0,0,1,11.2-11.205A11.216,11.216,0,0,1,44.822-15.159,11.225,11.225,0,0,1,33.617-3.954ZM55.577-33.1a4.02,4.02,0,0,0-4.02-4.02,4.02,4.02,0,0,0-4.02,4.02,4.011,4.011,0,0,0,4.02,4.02A4.011,4.011,0,0,0,55.577-33.1Zm11.415,4.08c-.255-5.385-1.485-10.155-5.43-14.085s-8.7-5.16-14.085-5.43c-5.55-.315-22.185-.315-27.735,0-5.37.255-10.14,1.485-14.085,5.415S.5-34.419.227-29.034C-.087-23.484-.087-6.849.227-1.3.482,4.086,1.713,8.856,5.657,12.786s8.7,5.16,14.085,5.43c5.55.315,22.185.315,27.735,0,5.385-.255,10.155-1.485,14.085-5.43s5.16-8.7,5.43-14.085C67.307-6.849,67.307-23.469,66.992-29.019ZM59.822,4.656a11.344,11.344,0,0,1-6.39,6.39C49.007,12.8,38.507,12.4,33.617,12.4s-15.4.39-19.815-1.35a11.344,11.344,0,0,1-6.39-6.39C5.657.231,6.062-10.269,6.062-15.159s-.39-15.4,1.35-19.815a11.344,11.344,0,0,1,6.39-6.39c4.425-1.755,14.925-1.35,19.815-1.35s15.4-.39,19.815,1.35a11.344,11.344,0,0,1,6.39,6.39c1.755,4.425,1.35,14.925,1.35,19.815S61.577.246,59.822,4.656Z" transform="translate(30.729 79.49)" fill="#fff"/>
    <path id="Pfad_24" data-name="Pfad 24" d="M33.617-32.394A17.208,17.208,0,0,0,16.382-15.159,17.208,17.208,0,0,0,33.617,2.076,17.208,17.208,0,0,0,50.852-15.159,17.208,17.208,0,0,0,33.617-32.394Zm0,28.44a11.225,11.225,0,0,1-11.2-11.2,11.216,11.216,0,0,1,11.2-11.205A11.216,11.216,0,0,1,44.822-15.159,11.225,11.225,0,0,1,33.617-3.954ZM55.577-33.1a4.02,4.02,0,0,0-4.02-4.02,4.02,4.02,0,0,0-4.02,4.02,4.011,4.011,0,0,0,4.02,4.02A4.011,4.011,0,0,0,55.577-33.1Zm11.415,4.08c-.255-5.385-1.485-10.155-5.43-14.085s-8.7-5.16-14.085-5.43c-5.55-.315-22.185-.315-27.735,0-5.37.255-10.14,1.485-14.085,5.415S.5-34.419.227-29.034C-.087-23.484-.087-6.849.227-1.3.482,4.086,1.713,8.856,5.657,12.786s8.7,5.16,14.085,5.43c5.55.315,22.185.315,27.735,0,5.385-.255,10.155-1.485,14.085-5.43s5.16-8.7,5.43-14.085C67.307-6.849,67.307-23.469,66.992-29.019ZM59.822,4.656a11.344,11.344,0,0,1-6.39,6.39C49.007,12.8,38.507,12.4,33.617,12.4s-15.4.39-19.815-1.35a11.344,11.344,0,0,1-6.39-6.39C5.657.231,6.062-10.269,6.062-15.159s-.39-15.4,1.35-19.815a11.344,11.344,0,0,1,6.39-6.39c4.425-1.755,14.925-1.35,19.815-1.35s15.4-.39,19.815,1.35a11.344,11.344,0,0,1,6.39,6.39c1.755,4.425,1.35,14.925,1.35,19.815S61.577.246,59.822,4.656Z" transform="translate(30.729 79.49)" fill="#fff"/>
    <g id="Gruppe_8" data-name="Gruppe 8">
      <circle id="Ellipse_5" data-name="Ellipse 5" cx="64" cy="64" r="64" fill="#990080"/>
    </g>
    <g id="Gruppe_10" data-name="Gruppe 10" transform="translate(0 1)">
      <path id="calendar-regular" d="M66.964,9.375H58.929V1.758A1.9,1.9,0,0,0,56.92,0h-6.7a1.9,1.9,0,0,0-2.009,1.758V9.375H26.786V1.758A1.9,1.9,0,0,0,24.777,0h-6.7a1.9,1.9,0,0,0-2.009,1.758V9.375H8.036C3.6,9.375,0,12.524,0,16.406V67.969C0,71.851,3.6,75,8.036,75H66.964C71.4,75,75,71.851,75,67.969V16.406C75,12.524,71.4,9.375,66.964,9.375Zm-1,58.594H9.04a.951.951,0,0,1-1-.879V23.437H66.964V67.09A.951.951,0,0,1,65.96,67.969Z" transform="translate(26.411 23.348)" fill="#fff"/>
      <path id="globe-regular" d="M18,8A18,18,0,1,0,36,26,18,18,0,0,0,18,8ZM31.014,19.613H26.136a24.187,24.187,0,0,0-2.265-6.873,14.551,14.551,0,0,1,7.142,6.873ZM18,11.484c1.35,0,3.527,2.99,4.587,8.129H13.413C14.473,14.474,16.65,11.484,18,11.484ZM3.484,26a14.7,14.7,0,0,1,.29-2.9h5.64c-.073.951-.123,1.909-.123,2.9s.051,1.952.123,2.9H3.774A14.7,14.7,0,0,1,3.484,26Zm1.5,6.387H9.864a24.188,24.188,0,0,0,2.265,6.873,14.551,14.551,0,0,1-7.142-6.873ZM9.864,19.613H4.986a14.551,14.551,0,0,1,7.142-6.873,24.187,24.187,0,0,0-2.265,6.873ZM18,40.516c-1.35,0-3.527-2.99-4.587-8.129h9.181C21.527,37.526,19.35,40.516,18,40.516ZM23.088,28.9H12.912c-.08-.929-.138-1.887-.138-2.9s.058-1.974.138-2.9H23.1c.08.929.138,1.887.138,2.9S23.168,27.974,23.088,28.9Zm.784,10.357a24.417,24.417,0,0,0,2.265-6.873h4.877A14.551,14.551,0,0,1,23.872,39.26ZM26.586,28.9c.073-.951.123-1.909.123-2.9s-.051-1.952-.123-2.9h5.64a14.662,14.662,0,0,1,0,5.806Z" transform="translate(45.734 43.132)" fill="#fff"/>
    </g>
  </g>
</svg>
