<svg id="holidays" xmlns="http://www.w3.org/2000/svg" width="128" height="128" viewBox="0 0 128 128">
  <circle id="Ellipse_1" data-name="Ellipse 1" cx="64" cy="64" r="64" fill="#990080"/>
  <path id="calendar-regular" d="M66.964,9.375H58.929V1.758A1.9,1.9,0,0,0,56.92,0h-6.7a1.9,1.9,0,0,0-2.009,1.758V9.375H26.786V1.758A1.9,1.9,0,0,0,24.777,0h-6.7a1.9,1.9,0,0,0-2.009,1.758V9.375H8.036C3.6,9.375,0,12.524,0,16.406V67.969C0,71.851,3.6,75,8.036,75H66.964C71.4,75,75,71.851,75,67.969V16.406C75,12.524,71.4,9.375,66.964,9.375Zm-1,58.594H9.04a.951.951,0,0,1-1-.879V23.437H66.964V67.09A.951.951,0,0,1,65.96,67.969Z" transform="translate(26.411 24.348)" fill="#fff"/>
  <path id="globe-regular" d="M18,8A18,18,0,1,0,36,26,18,18,0,0,0,18,8ZM31.014,19.613H26.136a24.187,24.187,0,0,0-2.265-6.873,14.551,14.551,0,0,1,7.142,6.873ZM18,11.484c1.35,0,3.527,2.99,4.587,8.129H13.413C14.473,14.474,16.65,11.484,18,11.484ZM3.484,26a14.7,14.7,0,0,1,.29-2.9h5.64c-.073.951-.123,1.909-.123,2.9s.051,1.952.123,2.9H3.774A14.7,14.7,0,0,1,3.484,26Zm1.5,6.387H9.864a24.188,24.188,0,0,0,2.265,6.873,14.551,14.551,0,0,1-7.142-6.873ZM9.864,19.613H4.986a14.551,14.551,0,0,1,7.142-6.873,24.187,24.187,0,0,0-2.265,6.873ZM18,40.516c-1.35,0-3.527-2.99-4.587-8.129h9.181C21.527,37.526,19.35,40.516,18,40.516ZM23.088,28.9H12.912c-.08-.929-.138-1.887-.138-2.9s.058-1.974.138-2.9H23.1c.08.929.138,1.887.138,2.9S23.168,27.974,23.088,28.9Zm.784,10.357a24.417,24.417,0,0,0,2.265-6.873h4.877A14.551,14.551,0,0,1,23.872,39.26ZM26.586,28.9c.073-.951.123-1.909.123-2.9s-.051-1.952-.123-2.9h5.64a14.662,14.662,0,0,1,0,5.806Z" transform="translate(45.734 44.132)" fill="#fff"/>
</svg>
